<svg xmlns="http://www.w3.org/2000/svg" viewBox="0 0 224.01 95.96"><defs><style>.cls-1{font-size:36.84px;font-family:BigCaslon-Medium, Big Caslon;letter-spacing:0.06em;}.cls-1,.cls-2{fill:#c5c5c5;}.cls-2{stroke:#2d2d2d;stroke-miterlimit:10;stroke-width:3px;}</style></defs><title>Asset 1</title><g id="Layer_2" data-name="Layer 2"><g id="main"><g id="Logo"><text class="cls-1" transform="translate(0.37 31.77)">ToDiddlyDo</text><path class="cls-2" d="M127.08,44.48s-7.78,7-14.08,7-13.87-7-13.87-7c-27,5.08-78.76,32.71-54.31,49.86,0,0,69.87-17.78,135.61-8.89C180.44,85.44,210.92,61.94,127.08,44.48ZM62.9,75.16c1.14-3.5,2.58-7,5.26-9.57,1.76-1.66,4-2.83,5.59-4.62l.81-1.05A8.05,8.05,0,0,1,73.75,61Zm20.83,2.32a25.88,25.88,0,0,1,6.34-12.61,12.33,12.33,0,0,1,4.39-3.28Zm22.42-2.94a15,15,0,0,1,5.76-14.08Zm18.2-14.94c4.22,1.24,7.13,5,9.74,8.53l3.79,5.13Zm12.47.33a8.2,8.2,0,0,1,3.28,2.2c3.46,3.26,7,6.63,9,10.94Zm17.38,4a17.07,17.07,0,0,1-3.07-1.15c-1.88-1-3.37-2.68-5.12-3.86l-2.22-1.07A7.78,7.78,0,0,1,146,59l14.13,6.82Z"/></g></g></g></svg>