<?xml version="1.0" encoding="utf-8"?>
<!-- Generator: Adobe Illustrator 20.0.0, SVG Export Plug-In . SVG Version: 6.00 Build 0)  -->
<svg version="1.1" xmlns="http://www.w3.org/2000/svg" xmlns:xlink="http://www.w3.org/1999/xlink" x="0px" y="0px"
	 viewBox="0 0 1920 1884.1" style="enable-background:new 0 0 1920 1884.1;" xml:space="preserve">
<style type="text/css">
	.st0{fill:none;}
	.st1{fill:none;stroke:#2D2D2D;stroke-width:3;stroke-miterlimit:10;}
	.st2{fill:#2D2D2D;}
	.st3{fill:none;stroke:#2D2D2D;stroke-width:3;stroke-miterlimit:10;stroke-dasharray:11.8621,11.8621;}
	.st4{opacity:0.59;fill:#C5C5C5;stroke:#2D2D2D;stroke-width:3;stroke-miterlimit:10;}
	.st5{display:none;}
	.st6{display:inline;}
	.st7{fill:#C5C5C5;}
	.st8{fill:#C5C5C5;stroke:#2D2D2D;stroke-width:3;stroke-miterlimit:10;}
	.st9{fill:none;stroke:#C5C5C5;stroke-width:10;stroke-miterlimit:10;}
	.st10{display:inline;fill:#2F363F;}
	.st11{font-family:'BigCaslon-Medium';}
	.st12{font-size:37px;}
	.st13{font-size:36.839px;}
	.st14{letter-spacing:2;}
	.st15{display:inline;opacity:0.34;fill:#C5C5C5;}
	.st16{font-size:43px;}
	.st17{letter-spacing:1;}
	.st18{font-size:25px;}
	.st19{display:inline;fill:none;stroke:#C5C5C5;stroke-width:3;stroke-miterlimit:10;}
	.st20{display:inline;fill:#C5C5C5;}
	.st21{fill:#D8D441;}
	.st22{fill:#CC3A3A;}
	.st23{fill:#383838;}
	.st24{font-family:'Avenir-Roman';}
	.st25{fill:#5370C1;}
	.st26{display:inline;fill:#E6E8E8;}
	.st27{display:inline;fill:#383838;}
	.st28{fill:none;stroke:#E6E8E8;stroke-width:3;stroke-miterlimit:10;}
	.st29{opacity:0.34;fill:#C5C5C5;}
	.st30{fill:#E6E8E8;}
	.st31{fill:#9A9B9B;}
	.st32{fill:none;stroke:#2F363F;stroke-width:3;stroke-miterlimit:10;}
	.st33{fill:#E6E8E8;stroke:#2F363F;stroke-width:5;stroke-miterlimit:10;}
	.st34{fill:none;stroke:#9A9B9B;stroke-miterlimit:10;}
	.st35{fill:none;stroke:#2F363F;stroke-width:5;stroke-miterlimit:10;}
	.st36{display:inline;fill:#9A9B9B;}
	.st37{display:inline;fill:none;stroke:#2F363F;stroke-width:3;stroke-miterlimit:10;}
	.st38{display:inline;fill:none;stroke:#2F363F;stroke-width:5;stroke-miterlimit:10;}
	.st39{display:inline;fill:#CC3A3A;}
	.st40{display:inline;fill:#D8D441;}
	.st41{font-size:21px;}
	.st42{fill:none;stroke:#383838;stroke-width:1.5;stroke-miterlimit:10;}
	.st43{font-family:'Avenir-Medium';}
	.st44{font-size:12px;}
	.st45{letter-spacing:3;}
	.st46{font-family:'Avenir-Light';}
	.st47{letter-spacing:-1;}
	.st48{letter-spacing:4;}
	.st49{letter-spacing:5;}
	.st50{letter-spacing:-5;}
	.st51{display:inline;fill:#C6C6C6;}
	.st52{display:inline;fill:#E6E8E8;stroke:#2F363F;stroke-width:5;stroke-miterlimit:10;}
	.st53{display:inline;fill:#5370C1;}
	.st54{fill:#2F363F;}
	.st55{opacity:0.23;fill:url(#SVGID_1_);}
	.st56{display:none;fill:#E6E8E8;}
	.st57{font-size:79px;}
	.st58{font-size:35px;}
	.st59{display:inline;fill:#2A679E;}
	.st60{fill:#2A679E;}
	.st61{display:inline;opacity:0.23;fill:url(#SVGID_2_);}
</style>
<pattern  x="0.1" y="0" width="503" height="506" patternUnits="userSpaceOnUse" id="ToDiddlyDo" viewBox="75.2 -515.4 503 506" style="overflow:visible;">
	<g>
		<rect x="75.2" y="-515.4" class="st0" width="503" height="506"/>
		<g>
			<g>
				<g>
					<polyline class="st1" points="322.4,-3.6 326.6,-7.8 330.9,-3.6 					"/>
				</g>
				<circle class="st2" cx="326.6" cy="-7.8" r="7.8"/>
			</g>
		</g>
		<g>
			<g>
				<g>
					<polyline class="st1" points="330.6,-4.9 326.4,-9.1 330.6,-13.4 					"/>
					<line class="st3" x1="339" y1="-21.7" x2="569.7" y2="-252.4"/>
					<polyline class="st1" points="573.9,-256.6 578.1,-260.8 582.4,-256.6 					"/>
				</g>
				<circle class="st2" cx="578.1" cy="-260.8" r="7.8"/>
				<circle class="st2" cx="326.9" cy="-9.6" r="7.8"/>
			</g>
			<g>
				<circle class="st4" cx="538" cy="-41" r="28.5"/>
				<line class="st4" x1="566.5" y1="-41" x2="589.9" y2="-41"/>
			</g>
		</g>
		<g>
			<g>
				<g>
					<polyline class="st1" points="70.9,-256.6 75.1,-260.8 79.4,-256.6 					"/>
					<line class="st3" x1="87.8" y1="-248.2" x2="318.4" y2="-17.6"/>
					<polyline class="st1" points="322.6,-13.4 326.9,-9.1 322.6,-4.9 					"/>
				</g>
				<circle class="st2" cx="75.1" cy="-260.8" r="7.8"/>
				<circle class="st2" cx="326.5" cy="-8.8" r="7.8"/>
			</g>
			<g>
				<circle class="st4" cx="115.4" cy="-41" r="28.5"/>
				<line class="st4" x1="63.5" y1="-41" x2="86.9" y2="-41"/>
			</g>
		</g>
		<g>
			<g>
				<g>
					<polyline class="st1" points="582.1,-257.9 577.9,-262.1 582.1,-266.4 					"/>
				</g>
				<circle class="st2" cx="578.4" cy="-262.6" r="7.8"/>
			</g>
		</g>
		<g>
			<g>
				<g>
					<polyline class="st1" points="330.9,-14.6 326.6,-10.4 322.4,-14.6 					"/>
					<line class="st3" x1="314" y1="-23" x2="83.3" y2="-253.7"/>
					<polyline class="st1" points="79.1,-257.9 74.9,-262.1 79.1,-266.4 					"/>
					<line class="st3" x1="87.5" y1="-274.7" x2="318.2" y2="-505.4"/>
					<polyline class="st1" points="322.4,-509.6 326.6,-513.8 330.9,-509.6 					"/>
					<line class="st3" x1="339.3" y1="-501.2" x2="569.9" y2="-270.6"/>
					<polyline class="st1" points="574.1,-266.4 578.4,-262.1 574.1,-257.9 					"/>
					<line class="st3" x1="565.7" y1="-249.5" x2="335.1" y2="-18.8"/>
				</g>
				<circle class="st2" cx="326.6" cy="-513.8" r="7.8"/>
				<circle class="st2" cx="75.4" cy="-262.6" r="7.8"/>
				<circle class="st2" cx="327.1" cy="-10.9" r="7.8"/>
				<circle class="st2" cx="578" cy="-261.8" r="7.8"/>
			</g>
			<g>
				<path class="st4" d="M395-211.1c-65.7-8.9-135.6,8.9-135.6,8.9c-24.5-17.1,27.3-44.8,54.3-49.9c0,0,7.6,7,13.9,7
					c6.3,0,14.1-7,14.1-7C425.5-234.6,395-211.1,395-211.1z M288.3-235.6c0.3-0.3,0.6-0.7,0.8-1.1L288.3-235.6
					c-1.6,1.8-3.8,3-5.6,4.6c-2.7,2.5-4.1,6.1-5.3,9.6L288.3-235.6z M309-235c-1.7,0.7-3.1,1.9-4.4,3.3c-3.2,3.5-5.4,7.9-6.3,12.6
					L309-235z M326.5-236.1c-4.3,3.2-6.6,8.8-5.8,14.1L326.5-236.1z M352.4-223.3c-1.3-1.7-2.5-3.4-3.8-5.1
					c-2.6-3.5-5.5-7.3-9.7-8.5L352.4-223.3z M363.6-223.5c-2-4.3-5.5-7.7-9-10.9c-1-0.9-2-1.9-3.3-2.2L363.6-223.5z M374.7-230.8
					l-14.1-6.8c-0.7-0.5-1.4-0.8-2.2-1.1l2.2,1.1c1.7,1.2,3.2,2.9,5.1,3.9c1,0.5,2,0.8,3.1,1.2C370.7-232,372.7-231.4,374.7-230.8z"
					/>
				<circle class="st4" cx="286.5" cy="-294" r="28.5"/>
				<circle class="st4" cx="366.9" cy="-294" r="28.5"/>
				<line class="st4" x1="315" y1="-294" x2="338.4" y2="-294"/>
			</g>
		</g>
		<g>
			<g>
				<g>
					<polyline class="st1" points="71.1,-266.4 75.4,-262.1 71.1,-257.9 					"/>
				</g>
				<circle class="st2" cx="75" cy="-261.8" r="7.8"/>
			</g>
		</g>
		<g>
			<g>
				<g>
					<polyline class="st1" points="582.4,-267.6 578.1,-263.4 573.9,-267.6 					"/>
					<line class="st3" x1="565.5" y1="-276" x2="334.8" y2="-506.7"/>
					<polyline class="st1" points="330.6,-510.9 326.4,-515.1 330.6,-519.4 					"/>
				</g>
				<circle class="st2" cx="326.9" cy="-515.6" r="7.8"/>
				<circle class="st2" cx="578.6" cy="-263.9" r="7.8"/>
			</g>
			<g>
				<path class="st4" d="M646.5-464.1c-65.7-8.9-135.6,8.9-135.6,8.9c-24.5-17.1,27.3-44.8,54.3-49.9c0,0,7.6,7,13.9,7
					s14.1-7,14.1-7C677-487.6,646.5-464.1,646.5-464.1z M539.8-488.6c0.3-0.3,0.6-0.7,0.8-1.1L539.8-488.6c-1.6,1.8-3.8,3-5.6,4.6
					c-2.7,2.5-4.1,6.1-5.3,9.6L539.8-488.6z M560.5-488c-1.7,0.7-3.1,1.9-4.4,3.3c-3.2,3.5-5.4,7.9-6.3,12.6L560.5-488z M578-489.1
					c-4.3,3.2-6.6,8.8-5.8,14.1L578-489.1z M603.9-476.3c-1.3-1.7-2.5-3.4-3.8-5.1c-2.6-3.5-5.5-7.3-9.7-8.5L603.9-476.3z
					 M615.1-476.5c-2-4.3-5.5-7.7-9-10.9c-1-0.9-2-1.9-3.3-2.2L615.1-476.5z M626.2-483.8l-14.1-6.8c-0.7-0.5-1.4-0.8-2.2-1.1
					l2.2,1.1c1.7,1.2,3.2,2.9,5.1,3.9c1,0.5,2,0.8,3.1,1.2C622.2-485,624.2-484.4,626.2-483.8z"/>
			</g>
		</g>
		<g>
			<g>
				<g>
					<polyline class="st1" points="79.4,-267.6 75.1,-263.4 70.9,-267.6 					"/>
					<polyline class="st1" points="322.6,-519.4 326.9,-515.1 322.6,-510.9 					"/>
					<line class="st3" x1="314.2" y1="-502.5" x2="83.6" y2="-271.8"/>
				</g>
				<circle class="st2" cx="75.6" cy="-263.9" r="7.8"/>
				<circle class="st2" cx="326.5" cy="-514.8" r="7.8"/>
			</g>
			<g>
				<path class="st4" d="M143.5-464.1C77.8-473,7.9-455.2,7.9-455.2c-24.5-17.1,27.3-44.8,54.3-49.9c0,0,7.6,7,13.9,7
					c6.3,0,14.1-7,14.1-7C174-487.6,143.5-464.1,143.5-464.1z M36.8-488.6c0.3-0.3,0.6-0.7,0.8-1.1L36.8-488.6
					c-1.6,1.8-3.8,3-5.6,4.6c-2.7,2.5-4.1,6.1-5.3,9.6L36.8-488.6z M57.5-488c-1.7,0.7-3.1,1.9-4.4,3.3c-3.2,3.5-5.4,7.9-6.3,12.6
					L57.5-488z M75-489.1c-4.3,3.2-6.6,8.8-5.8,14.1L75-489.1z M100.9-476.3c-1.3-1.7-2.5-3.4-3.8-5.1c-2.6-3.5-5.5-7.3-9.7-8.5
					L100.9-476.3z M112.1-476.5c-2-4.3-5.5-7.7-9-10.9c-1-0.9-2-1.9-3.3-2.2L112.1-476.5z M123.2-483.8l-14.1-6.8
					c-0.7-0.5-1.4-0.8-2.2-1.1l2.2,1.1c1.7,1.2,3.2,2.9,5.1,3.9c1,0.5,2,0.8,3.1,1.2C119.2-485,121.2-484.4,123.2-483.8z"/>
			</g>
		</g>
		<g>
			<g>
				<g>
					<polyline class="st1" points="330.9,-520.6 326.6,-516.4 322.4,-520.6 					"/>
				</g>
				<circle class="st2" cx="327.1" cy="-516.9" r="7.8"/>
			</g>
		</g>
	</g>
</pattern>
<g id="Blank" class="st5">
	<g id="Alt_Logo" class="st6">
		<g>
			<text transform="matrix(1 0 0 1 -339.2697 215.8732)" class="st7 st11 st13 st14">ToDiddlyDo</text>
			<path class="st8" d="M-212.7,228.6c0,0-7.8,7-14.1,7c-6.3,0-13.9-7-13.9-7c-27,5.1-78.8,32.7-54.3,49.9c0,0,69.9-17.8,135.6-8.9
				C-159.3,269.5-128.8,246-212.7,228.6z M-276.9,259.3c1.1-3.5,2.6-7,5.3-9.6c1.8-1.7,4-2.8,5.6-4.6l0.8-1.1
				c-0.2,0.4-0.5,0.7-0.8,1.1L-276.9,259.3z M-256,261.6c0.9-4.7,3.1-9.1,6.3-12.6c1.2-1.4,2.7-2.6,4.4-3.3L-256,261.6z
				 M-233.6,258.6c-0.8-5.3,1.5-10.9,5.8-14.1L-233.6,258.6z M-215.4,243.7c4.2,1.2,7.1,5,9.7,8.5c1.3,1.7,2.5,3.4,3.8,5.1
				L-215.4,243.7z M-202.9,244c1.3,0.3,2.3,1.3,3.3,2.2c3.5,3.3,7,6.6,9,10.9L-202.9,244z M-185.6,248.1c-1-0.3-2.1-0.6-3.1-1.2
				c-1.9-1-3.4-2.7-5.1-3.9l-2.2-1.1c0.8,0.2,1.5,0.6,2.2,1.1l14.1,6.8C-181.6,249.3-183.6,248.7-185.6,248.1z"/>
		</g>
		<circle class="st9" cx="-267.8" cy="145.3" r="28.5"/>
		<circle class="st9" cx="-187.5" cy="145.3" r="28.5"/>
		<line class="st9" x1="-239.3" y1="145.3" x2="-215.9" y2="145.3"/>
	</g>
</g>
<g id="main" class="st5">
	<rect y="0" class="st10" width="1920" height="1884.1"/>
	<g id="Top" class="st6">
		<text transform="matrix(1 0 0 1 1541.8564 119.2663)" class="st7 st11 st12">Login</text>
		<text transform="matrix(1 0 0 1 1690.3462 119.2665)" class="st7 st11 st12">Register</text>
		<g id="Logo">
			<text transform="matrix(1 0 0 1 101.1163 95.1493)" class="st7 st11 st13 st14">ToDiddlyDo</text>
			<path class="st8" d="M227.8,107.9c0,0-7.8,7-14.1,7c-6.3,0-13.9-7-13.9-7c-27,5.1-78.8,32.7-54.3,49.9c0,0,69.9-17.8,135.6-8.9
				C281.2,148.8,311.7,125.3,227.8,107.9z M163.6,138.5c1.1-3.5,2.6-7,5.3-9.6c1.8-1.7,4-2.8,5.6-4.6l0.8-1.1
				c-0.2,0.4-0.5,0.7-0.8,1.1L163.6,138.5z M184.5,140.9c0.9-4.7,3.1-9.1,6.3-12.6c1.2-1.4,2.7-2.6,4.4-3.3L184.5,140.9z
				 M206.9,137.9c-0.8-5.3,1.5-10.9,5.8-14.1L206.9,137.9z M225.1,123c4.2,1.2,7.1,5,9.7,8.5c1.3,1.7,2.5,3.4,3.8,5.1L225.1,123z
				 M237.6,123.3c1.3,0.3,2.3,1.3,3.3,2.2c3.5,3.3,7,6.6,9,10.9L237.6,123.3z M255,127.3c-1-0.3-2.1-0.6-3.1-1.2
				c-1.9-1-3.4-2.7-5.1-3.9l-2.2-1.1c0.8,0.2,1.5,0.6,2.2,1.1l14.1,6.8C258.9,128.5,256.9,127.9,255,127.3z"/>
		</g>
	</g>
	<text transform="matrix(1 0 0 1 562.1961 379.0984)" class="st15 st11 st16 st17">What ToDiddlyDo, Neighbor?</text>
	<text transform="matrix(1 0 0 1 139.1961 624.0984)" class="st15 st11 st16 st17">To Do’s:</text>
	<text transform="matrix(1 0 0 1 562.196 446.3804)" class="st6"><tspan x="0" y="0" class="st7 st11 st18 st17">Due Dat</tspan><tspan x="98.1" y="0" class="st7 st11 st18">e</tspan><tspan x="109" y="0" class="st7 st11 st18 st17">:</tspan></text>
	<line class="st19" x1="562.2" y1="395" x2="1358.9" y2="395"/>
	<text transform="matrix(1 0 0 1 882.1959 446.3805)" class="st20 st11 st18 st17">Importance:</text>
	<g id="Importance_selector" class="st6">
		<g id="Alt">
			<rect x="1031.1" y="459" class="st21" width="173.4" height="39"/>
			<rect x="1031.1" y="498" class="st22" width="173.4" height="39"/>
			<text transform="matrix(1 0 0 1 1057.9105 487.1782)" class="st23 st24 st18 st17">important</text>
			<text transform="matrix(1 0 0 1 1077.6976 526.1899)" class="st23 st24 st18 st17">urgent</text>
		</g>
		<g id="Main">
			<rect x="1031.1" y="420" class="st25" width="173.4" height="39"/>
			<text transform="matrix(1 0 0 1 1096.5726 448.1665)" class="st23 st24 st18 st17">low</text>
		</g>
	</g>
	<rect id="Unselected" x="687.2" y="420" class="st26" width="173.4" height="39"/>
	<text transform="matrix(1 0 0 1 703.8801 448.1665)" class="st27 st24 st18 st17">07/08/2016</text>
	<g id="Trash" class="st6">
		<path class="st28" d="M1352.2,457.8h-14.3c-3.1,0-5.6-2.5-5.6-5.6V433c0-3.1,2.5-5.6,5.6-5.6h14.3c3.1,0,5.6,2.5,5.6,5.6v19.3
			C1357.8,455.3,1355.3,457.8,1352.2,457.8z"/>
		<line class="st28" x1="1337.9" y1="434.4" x2="1337.9" y2="450.6"/>
		<line class="st28" x1="1345.1" y1="434.4" x2="1345.1" y2="450.6"/>
		<line class="st28" x1="1352.3" y1="434.4" x2="1352.3" y2="450.6"/>
		<path class="st28" d="M1349.2,421.2h-8.2c-1.7,0-3.1,1.4-3.1,3.1l0,0c0,1.7,1.4,3.1,3.1,3.1h8.2c1.7,0,3.1-1.4,3.1-3.1l0,0
			C1352.3,422.6,1350.9,421.2,1349.2,421.2z"/>
	</g>
	<g id="Add" class="st6">
		<path class="st28" d="M1266.7,457.8L1266.7,457.8c-0.5,0-0.9-0.4-0.9-0.9v-34.9c0-0.5,0.4-0.9,0.9-0.9l0,0c0.5,0,0.9,0.4,0.9,0.9
			v34.9C1267.5,457.4,1267.1,457.8,1266.7,457.8z"/>
		<path class="st28" d="M1248.3,439.5L1248.3,439.5c0-0.5,0.4-0.9,0.9-0.9h34.9c0.5,0,0.9,0.4,0.9,0.9l0,0c0,0.5-0.4,0.9-0.9,0.9
			h-34.9C1248.7,440.4,1248.3,440,1248.3,439.5z"/>
	</g>
	<g id="Done" class="st6">
		<text transform="matrix(1 0 0 1 1031.196 625.0984)" class="st29 st11 st16 st17">Done:</text>
		<g>
			<rect x="1031.3" y="645.5" class="st30" width="796.7" height="57"/>
			<g>
				<text transform="matrix(1 0 0 1 1327.0796 682.7393)" class="st31 st11 st18 st17">Take out the trash</text>
			</g>
			<path class="st32" d="M1791.9,692.2h-14.3c-3.1,0-5.6-2.5-5.6-5.6v-19.3c0-3.1,2.5-5.6,5.6-5.6h14.3c3.1,0,5.6,2.5,5.6,5.6v19.3
				C1797.4,689.7,1794.9,692.2,1791.9,692.2z"/>
			<line class="st32" x1="1777.5" y1="668.8" x2="1777.5" y2="684.9"/>
			<line class="st32" x1="1784.7" y1="668.8" x2="1784.7" y2="684.9"/>
			<line class="st32" x1="1791.9" y1="668.8" x2="1791.9" y2="684.9"/>
			<path class="st32" d="M1788.8,655.5h-8.2c-1.7,0-3.1,1.4-3.1,3.1v0c0,1.7,1.4,3.1,3.1,3.1h8.2c1.7,0,3.1-1.4,3.1-3.1v0
				C1791.9,656.9,1790.5,655.5,1788.8,655.5z"/>
			<path class="st33" d="M1061.5,674.6c0,0,5.7,16.3,8,11.3c2.3-5,13.3-26,13.3-26"/>
			<line class="st34" x1="1153.5" y1="676.9" x2="1709.9" y2="676.9"/>
		</g>
		<g>
			<rect x="1031.1" y="706.1" class="st30" width="796.7" height="142.2"/>
			<g>
				<text transform="matrix(1 0 0 1 1159.4669 738.1306)"><tspan x="0" y="0" class="st31 st11 st18 st17">Who would think, then, that such fine ladies and </tspan><tspan x="0" y="30" class="st31 st11 st18 st17">gentlemen should regale themselves with an </tspan><tspan x="0" y="60" class="st31 st11 st18 st17">essence found in the inglorious bowels of a sick </tspan><tspan x="0" y="90" class="st31 st11 st18 st17">whale! Yet so it is.</tspan></text>
			</g>
			<path class="st32" d="M1791.6,795.6h-14.3c-3.1,0-5.6-2.5-5.6-5.6v-19.3c0-3.1,2.5-5.6,5.6-5.6h14.3c3.1,0,5.6,2.5,5.6,5.6V790
				C1797.2,793.1,1794.7,795.6,1791.6,795.6z"/>
			<line class="st32" x1="1777.3" y1="772.1" x2="1777.3" y2="788.3"/>
			<line class="st32" x1="1784.5" y1="772.1" x2="1784.5" y2="788.3"/>
			<line class="st32" x1="1791.7" y1="772.1" x2="1791.7" y2="788.3"/>
			<path class="st32" d="M1788.6,758.9h-8.2c-1.7,0-3.1,1.4-3.1,3.1l0,0c0,1.7,1.4,3.1,3.1,3.1h8.2c1.7,0,3.1-1.4,3.1-3.1l0,0
				C1791.7,760.3,1790.3,758.9,1788.6,758.9z"/>
			<path class="st35" d="M1061.2,778c0,0,5.7,16.3,8,11.3s13.3-26,13.3-26"/>
			<line class="st34" x1="1151.2" y1="729.9" x2="1707.6" y2="729.9"/>
			<line class="st34" x1="1151.2" y1="763.3" x2="1707.6" y2="763.3"/>
			<line class="st34" x1="1151.2" y1="792.5" x2="1707.6" y2="792.5"/>
			<line class="st34" x1="1151.5" y1="821.5" x2="1707.9" y2="821.5"/>
		</g>
	</g>
	<text transform="matrix(1 0 0 1 231.8724 642.7393)" class="st23 st24 st18 st17">07/08/2016</text>
	<rect x="139.3" y="645.5" class="st36" width="796.7" height="57"/>
	<text transform="matrix(1 0 0 1 495.0795 682.7393)" class="st10 st11 st18 st17">Walk the dog</text>
	<path class="st37" d="M899.9,692.2h-14.3c-3.1,0-5.6-2.5-5.6-5.6v-19.3c0-3.1,2.5-5.6,5.6-5.6h14.3c3.1,0,5.6,2.5,5.6,5.6v19.3
		C905.4,689.7,902.9,692.2,899.9,692.2z"/>
	<line class="st37" x1="885.5" y1="668.8" x2="885.5" y2="684.9"/>
	<line class="st37" x1="892.7" y1="668.8" x2="892.7" y2="684.9"/>
	<line class="st37" x1="899.9" y1="668.8" x2="899.9" y2="684.9"/>
	<path class="st37" d="M896.8,655.5h-8.2c-1.7,0-3.1,1.4-3.1,3.1v0c0,1.7,1.4,3.1,3.1,3.1h8.2c1.7,0,3.1-1.4,3.1-3.1v0
		C899.9,656.9,898.5,655.5,896.8,655.5z"/>
	<path class="st38" d="M169.5,674.6c0,0,5.7,16.3,8,11.3c2.3-5,13.3-26,13.3-26"/>
	<rect x="266.8" y="645.5" class="st39" width="99.5" height="57"/>
	<rect x="139.3" y="958.5" class="st26" width="796.7" height="57"/>
	<text transform="matrix(1 0 0 1 284.5468 680.0223)" class="st26 st24 st18 st17">07-08</text>
	<rect x="266.8" y="958.5" class="st40" width="99.5" height="57"/>
	<text transform="matrix(1 0 0 1 284.5468 993.0223)" class="st26 st24 st18 st17">07-08</text>
	<text transform="matrix(1 0 0 1 495.0795 995.7393)" class="st10 st11 st18 st17">Its that boi</text>
	<path class="st37" d="M899.9,1005.2h-14.3c-3.1,0-5.6-2.5-5.6-5.6v-19.3c0-3.1,2.5-5.6,5.6-5.6h14.3c3.1,0,5.6,2.5,5.6,5.6v19.3
		C905.4,1002.7,902.9,1005.2,899.9,1005.2z"/>
	<line class="st37" x1="885.5" y1="981.8" x2="885.5" y2="997.9"/>
	<g id="Date_Picker">
		<rect id="Date_BG" x="743.4" y="459" class="st26" width="262.2" height="277.6"/>
		<g class="st6">
			<g>
				<g id="Month_and_Year">
					<text transform="matrix(1 0 0 1 785.0727 500.7781)" class="st23 st24 st41">FEBRUARY</text>
					<text transform="matrix(1 0 0 1 913.7393 500.778)" class="st23 st24 st41">2016</text>
				</g>
				<g id="Arrows">
					<path class="st42" d="M980.4,486.4l8.7,4c0.7,0.3,0.8,1.4,0.1,1.8l-8.8,4.8"/>
					<path class="st42" d="M768.5,497l-8.7-4c-0.7-0.3-0.8-1.4-0.1-1.8l8.8-4.8"/>
				</g>
			</g>
			<rect x="767.1" y="599.8" class="st31" width="29.9" height="21.2"/>
			<g>
				<text id="Day_of_the_week" transform="matrix(1 0 0 1 773.4613 531.5291)" class="st23 st43 st44 st45">SU MO TU WE TH FR SA</text>
				<g id="Date_Number">
					<text transform="matrix(1 0 0 1 773.4611 559.9998)"><tspan x="0" y="0" class="st31 st46 st44 st14">29   30   31   </tspan><tspan x="101.5" y="0" class="st23 st46 st44 st14">1    2    3   </tspan><tspan x="188.2" y="0" class="st23 st46 st44 st47"> </tspan><tspan x="190.1" y="0" class="st23 st46 st44 st14">4</tspan></text>
					<g>
						<text transform="matrix(1 0 0 1 773.4611 587.293)"><tspan x="0" y="0" class="st23 st46 st44 st14"> 5   </tspan><tspan x="30.7" y="0" class="st23 st46 st44 st48"> </tspan><tspan x="38.6" y="0" class="st23 st46 st44 st14">6   </tspan><tspan x="63.8" y="0" class="st23 st46 st44 st49"> </tspan><tspan x="72" y="0" class="st23 st46 st44 st14">7    8    9   10  11</tspan></text>
					</g>
					<g>
						<text transform="matrix(1 0 0 1 773.4614 614.5849)"><tspan x="0" y="0" class="st23 st46 st44 st14">12   13   14  </tspan><tspan x="96" y="0" class="st23 st46 st44"> </tspan><tspan x="99.6" y="0" class="st23 st46 st44 st14">15  16 </tspan><tspan x="150.7" y="0" class="st23 st46 st44 st45"> </tspan><tspan x="157.7" y="0" class="st23 st46 st44 st14">17  1</tspan><tspan x="194.6" y="0" class="st23 st46 st44 st48">8</tspan></text>
					</g>
					<g>
						<text transform="matrix(1 0 0 1 773.4614 641.8775)"><tspan x="0" y="0" class="st23 st46 st44 st14">19   20   21  </tspan><tspan x="96" y="0" class="st23 st46 st44 st17"> </tspan><tspan x="100.6" y="0" class="st23 st46 st44 st14">22  23  24  25</tspan></text>
					</g>
					<g>
						<text transform="matrix(1 0 0 1 773.4614 669.1701)"><tspan x="0" y="0" class="st23 st46 st44 st14">26   27   28   29   </tspan><tspan x="135.4" y="0" class="st31 st46 st44 st14">1   2    3</tspan></text>
					</g>
					<g>
						<text transform="matrix(1 0 0 1 773.4614 696.4633)"><tspan x="0" y="0" class="st31 st46 st44 st14"> 5    6    </tspan><tspan x="67" y="0" class="st31 st46 st44 st14"> </tspan><tspan x="72.7" y="0" class="st31 st46 st44 st14">7   </tspan><tspan x="97.9" y="0" class="st31 st46 st44 st45"> </tspan><tspan x="104.4" y="0" class="st31 st46 st44 st14">8  </tspan><tspan x="124.1" y="0" class="st31 st46 st44 st48"> </tspan><tspan x="131.3" y="0" class="st31 st46 st44 st14">10  </tspan><tspan x="159.6" y="0" class="st31 st46 st44 st50"> </tspan><tspan x="157" y="0" class="st31 st46 st44 st14">11 </tspan><tspan x="179.8" y="0" class="st31 st46 st44 st47"> </tspan><tspan x="181.2" y="0" class="st31 st46 st44 st14"> 13</tspan></text>
					</g>
				</g>
			</g>
		</g>
		<rect id="Selected" x="686.8" y="420" class="st51" width="173.4" height="39"/>
		<text transform="matrix(1 0 0 1 703.47 448.1665)" class="st27 st24 st18 st17">07/08/2016</text>
	</g>
	<line class="st37" x1="892.7" y1="981.8" x2="892.7" y2="997.9"/>
	<line class="st37" x1="899.9" y1="981.8" x2="899.9" y2="997.9"/>
	<path class="st37" d="M896.8,968.5h-8.2c-1.7,0-3.1,1.4-3.1,3.1v0c0,1.7,1.4,3.1,3.1,3.1h8.2c1.7,0,3.1-1.4,3.1-3.1v0
		C899.9,969.9,898.5,968.5,896.8,968.5z"/>
	<path class="st52" d="M169.5,987.6c0,0,5.7,16.3,8,11.3c2.3-5,13.3-26,13.3-26"/>
	<rect x="139.3" y="1113.5" class="st26" width="796.7" height="57"/>
	<text transform="matrix(1 0 0 1 495.0795 1150.7393)" class="st10 st11 st18 st17">Oh shit waddup</text>
	<rect x="266.8" y="1113.9" class="st53" width="99.5" height="57"/>
	<text transform="matrix(1 0 0 1 284.5468 1148.3682)" class="st26 st24 st18 st17">07-08</text>
	<path class="st37" d="M899.9,1160.2h-14.3c-3.1,0-5.6-2.5-5.6-5.6v-19.3c0-3.1,2.5-5.6,5.6-5.6h14.3c3.1,0,5.6,2.5,5.6,5.6v19.3
		C905.4,1157.7,902.9,1160.2,899.9,1160.2z"/>
	<line class="st37" x1="885.5" y1="1136.8" x2="885.5" y2="1152.9"/>
	<line class="st37" x1="892.7" y1="1136.8" x2="892.7" y2="1152.9"/>
	<line class="st37" x1="899.9" y1="1136.8" x2="899.9" y2="1152.9"/>
	<path class="st37" d="M896.8,1123.5h-8.2c-1.7,0-3.1,1.4-3.1,3.1l0,0c0,1.7,1.4,3.1,3.1,3.1h8.2c1.7,0,3.1-1.4,3.1-3.1l0,0
		C899.9,1124.9,898.5,1123.5,896.8,1123.5z"/>
	<path class="st52" d="M169.5,1142.6c0,0,5.7,16.3,8,11.3c2.3-5,13.3-26,13.3-26"/>
	<rect x="366.3" y="702.5" class="st26" width="569.7" height="209.5"/>
	<text transform="matrix(1 0 0 1 388.0795 762.2355)" class="st6"><tspan x="0" y="0" class="st54 st11 st18 st17">Who would think, then, that such fine ladies and </tspan><tspan x="0" y="30" class="st54 st11 st18 st17">gentlemen should regale themselves with an </tspan><tspan x="0" y="60" class="st54 st11 st18 st17">essence found in the inglorious bowels of a sick </tspan><tspan x="0" y="90" class="st54 st11 st18 st17">whale! Yet so it is.</tspan></text>
</g>
<g id="Login">
	<pattern  id="SVGID_1_" xlink:href="#ToDiddlyDo" patternTransform="matrix(0.4255 0 0 0.4255 -4114.0186 -3624.416)">
	</pattern>
	<rect class="st55" width="1920" height="1884.1"/>
	<rect x="303.4" y="485.9" class="st56" width="1387.7" height="822.8"/>
	<g class="st5">
		<text transform="matrix(1 0 0 1 872.3759 695.2553)" class="st10 st11 st57 st45">Login</text>
		<text transform="matrix(1 0 0 1 759.0523 834.9042)" class="st10 st11 st58 st17">Username:</text>
		<text transform="matrix(1 0 0 1 759.0523 1013.8516)" class="st10 st11 st58 st17">Password:</text>
		<text transform="matrix(1 0 0 1 1024.2628 1013.852)" class="st59 st11 st18 st17">Forgot password?</text>
		<text transform="matrix(1 0 0 1 759.0521 1157.7113)" class="st6"><tspan x="0" y="0" class="st54 st11 st18 st17">New ToDoDiddlyDo? </tspan><tspan x="260.1" y="0" class="st60 st11 st18 st17">Create an account.</tspan></text>
		<rect x="759.1" y="1034.8" class="st10" width="476.4" height="70.2"/>
		<rect x="759.1" y="855.8" class="st10" width="476.4" height="70.2"/>
	</g>
</g>
<g id="Sign_up" class="st5">
	<pattern  id="SVGID_2_" xlink:href="#ToDiddlyDo" patternTransform="matrix(0.4255 0 0 0.4255 -4114.0186 -3624.416)">
	</pattern>
	<rect class="st61" width="1920" height="1884.1"/>
	<g class="st6">
		<rect x="266.1" y="283.8" class="st30" width="1387.7" height="1316.6"/>
		<g>
			<text transform="matrix(1 0 0 1 833.522 554.9212)" class="st54 st11 st57 st45">Signup</text>
			<g>
				<text transform="matrix(1 0 0 1 724.3369 1243.6929)" class="st54 st11 st58 st17">Confirm Password:</text>
				<text transform="matrix(1 0 0 1 724.3367 1387.5526)"><tspan x="0" y="0" class="st54 st11 st18 st17">Already have a ToDiddlyDo? </tspan><tspan x="330.6" y="0" class="st60 st11 st18 st17">Login.</tspan></text>
				<rect x="721.8" y="1264.6" class="st54" width="476.4" height="70.2"/>
			</g>
			<g>
				<text transform="matrix(1 0 0 1 724.3369 1082.6747)" class="st54 st11 st58 st17">Password:</text>
				<rect x="721.8" y="1103.6" class="st54" width="476.4" height="70.2"/>
			</g>
			<g>
				<text transform="matrix(1 0 0 1 724.3369 698.1147)" class="st54 st11 st58 st17">Username:</text>
				<rect x="721.8" y="719.1" class="st54" width="476.4" height="70.2"/>
			</g>
			<g>
				<text transform="matrix(1 0 0 1 724.3369 890.3945)" class="st54 st11 st58 st17">Email:</text>
				<rect x="721.8" y="911.3" class="st54" width="476.4" height="70.2"/>
				<text transform="matrix(1 0 0 1 765.9772 954.67)" class="st30 st11 st58 st17">Jack.Mehof@gmail.com</text>
			</g>
		</g>
	</g>
</g>
</svg>
